<svg width="20" height="20" viewBox="0 0 20 20" fill="none" xmlns="http://www.w3.org/2000/svg">
<path d="M15.5917 7.2465C15.5142 7.16839 15.422 7.1064 15.3205 7.06409C15.2189 7.02178 15.11 7 15 7C14.89 7 14.7811 7.02178 14.6795 7.06409C14.578 7.1064 14.4858 7.16839 14.4083 7.2465L10.5917 11.0632C10.5142 11.1413 10.422 11.2033 10.3205 11.2456C10.2189 11.2879 10.11 11.3097 10 11.3097C9.89 11.3097 9.78108 11.2879 9.67953 11.2456C9.57798 11.2033 9.48581 11.1413 9.40834 11.0632L5.59168 7.2465C5.51421 7.16839 5.42204 7.1064 5.32049 7.06409C5.21894 7.02178 5.11002 7 5.00001 7C4.89 7 4.78108 7.02178 4.67953 7.06409C4.57798 7.1064 4.48581 7.16839 4.40834 7.2465C4.25313 7.40263 4.16602 7.61384 4.16602 7.834C4.16602 8.05415 4.25313 8.26536 4.40834 8.4215L8.23334 12.2465C8.70209 12.7147 9.33751 12.9776 10 12.9776C10.6625 12.9776 11.2979 12.7147 11.7667 12.2465L15.5917 8.4215C15.7469 8.26536 15.834 8.05415 15.834 7.834C15.834 7.61384 15.7469 7.40263 15.5917 7.2465Z" fill="#011B33"/>
</svg>
